<?xml version="1.0" encoding="UTF-8" standalone="no"?>
<!-- Created with Inkscape (http://www.inkscape.org/) -->

<svg
   version="1.1"
   id="svg2"
   width="2829.3333"
   height="2829.3333"
   viewBox="0 0 2829.3333 2829.3333"
   sodipodi:docname="2289_SkVNQSBGQU1PIDEwMjgtMTIy.eps"
   xmlns:inkscape="http://www.inkscape.org/namespaces/inkscape"
   xmlns:sodipodi="http://sodipodi.sourceforge.net/DTD/sodipodi-0.dtd"
   xmlns="http://www.w3.org/2000/svg"
   xmlns:svg="http://www.w3.org/2000/svg">
  <defs
     id="defs6">
    <clipPath
       clipPathUnits="userSpaceOnUse"
       id="clipPath18">
      <path
         d="m 2121.35,10613.4 c 0,-4686.2 3798.89,-8485.3 8485.25,-8485.3 4686.3,0 8485.2,3799.1 8485.2,8485.3 0,4686.3 -3798.9,8485.1 -8485.2,8485.1 -4686.36,0 -8485.25,-3798.8 -8485.25,-8485.1"
         id="path16" />
    </clipPath>
  </defs>
  <sodipodi:namedview
     id="namedview4"
     pagecolor="#ffffff"
     bordercolor="#000000"
     borderopacity="0.25"
     inkscape:showpageshadow="2"
     inkscape:pageopacity="0.0"
     inkscape:pagecheckerboard="0"
     inkscape:deskcolor="#d1d1d1" />
  <g
     id="g8"
     inkscape:groupmode="layer"
     inkscape:label="ink_ext_XXXXXX"
     transform="matrix(1.3333333,0,0,-1.3333333,0,2829.3333)">
    <g
       id="g10"
       transform="scale(0.1)">
      <g
         id="g12">
        <g
           id="g14"
           clip-path="url(#clipPath18)">
          <path
             d="m 2121.38,10613.4 c 0,-4686.3 3798.92,-8485.2 8485.22,-8485.2 4686.3,0 8485.2,3798.9 8485.2,8485.2 0,4686.3 -3798.9,8485.2 -8485.2,8485.2 -4686.3,0 -8485.22,-3798.9 -8485.22,-8485.2"
             style="fill:#ef3628;fill-opacity:1;fill-rule:nonzero;stroke:none"
             id="path20" />
          <path
             d="m 13789,12470.3 c 0,0 320.2,863.8 150.7,1296.9 -169.5,433.2 -91.5,960.7 -56.4,1393.1 56.4,696.8 -420.8,1380.6 -931.4,1568.9 -461.2,170.2 -1743,280.4 -2081.7,352.2 -685.7,145.4 -2130.41,241.2 -2693.08,-583.8 -459.32,-673.5 -414.4,-895.6 -696.76,-1393.5 -470.76,-830.1 -211.77,-1837 56.5,-2489.3 268.33,-652.4 470.84,-259.9 470.84,-259.9 l 5781.3,115.4"
             style="fill:#161731;fill-opacity:1;fill-rule:nonzero;stroke:none"
             id="path22" />
          <path
             d="m 16409.4,5302.5 c -1543.2,246.5 -3585.8,913.2 -3892.4,1525.2 -281.1,561.6 -290.6,1257.4 -264.6,2373 L 10700.7,8707.9 9148.83,9200.7 C 9174.96,8085.1 9165.39,7389.3 8884.2,6827.7 8577.77,6215.7 6535.01,5549 4991.76,5302.5 3045.49,4991.6 3299.69,1891.4 3299.69,1891.4 h 7401.01 7400.9 c 0,0 254.2,3100.2 -1692.2,3411.1"
             style="fill:#cfe0e6;fill-opacity:1;fill-rule:nonzero;stroke:none"
             id="path24" />
          <path
             d="m 13113.9,6322.3 c -298.6,166.1 -512.9,337.8 -596.9,505.4 -229.7,458.8 -278.1,1007.5 -273.8,1801.3 -187.1,150.6 -397.1,275.9 -624.3,370.5 l -918.2,-291.6 -1025.18,325.5 c -184.36,-69.2 -358.13,-158.3 -518.65,-264.6 10.35,-870 -29.68,-1455.8 -272.67,-1941.1 -99.51,-198.6 -381.63,-402.8 -770.16,-596.6 251.2,-1096.6 1270.67,-1917.3 2490.36,-1917.3 1253.3,0 2295.4,866.5 2509.5,2008.5"
             style="fill:#e07a54;fill-opacity:1;fill-rule:nonzero;stroke:none"
             id="path26" />
          <path
             d="m 12440.4,7001.3 c -205.9,532.1 -211.4,1195.9 -188,2199.4 l -1551.7,-492.8 -1551.87,492.8 c 15.37,-657 18.29,-1168.2 -39.3,-1592.4 734.01,-598.4 2373.87,-1708.8 3330.87,-607"
             style="fill:#c96547;fill-opacity:1;fill-rule:nonzero;stroke:none"
             id="path28" />
          <path
             d="m 7961.28,12466.5 c 0,0 -157.51,489.9 -463.02,325.8 -305.4,-164.1 -143.06,-2065.8 301.32,-2285.8 444.38,-220 552.98,374.1 552.98,374.1 l -391.28,1585.9"
             style="fill:#e07a54;fill-opacity:1;fill-rule:nonzero;stroke:none"
             id="path30" />
          <path
             d="m 13495.4,12466.5 c 0,0 157.4,489.9 463,325.8 305.4,-164.1 143,-2065.8 -301.3,-2285.8 -444.5,-220 -553,374.1 -553,374.1 l 391.3,1585.9"
             style="fill:#e07a54;fill-opacity:1;fill-rule:nonzero;stroke:none"
             id="path32" />
          <path
             d="m 13613.9,12566.8 c -34.7,2421.9 -1114.8,3524.6 -2913.2,3530.9 -1798.57,-6.3 -2878.63,-1109 -2913.38,-3530.9 -12.3,-854.5 161,-1952.9 342.76,-2605.4 249.76,-896.8 1451.29,-1623.8 2092.22,-1947.3 157.4,-79.5 287.6,-77.9 478.4,-77.9 190.6,0 320.9,-1.6 478.4,77.9 640.8,323.5 1842.2,1050.5 2092.1,1947.3 181.7,652.5 355,1750.9 342.7,2605.4"
             style="fill:#f5966d;fill-opacity:1;fill-rule:nonzero;stroke:none"
             id="path34" />
          <path
             d="M 10735.9,9857.3 H 9708.92 c 209.35,-808.1 993.28,-727.4 993.28,-727.4 0,0 756.7,-80.7 1060.8,727.4 h -1027.1"
             style="fill:#ea6c4f;fill-opacity:1;fill-rule:nonzero;stroke:none"
             id="path36" />
          <path
             d="m 10735.9,9915.1 -962.36,-77.6 c 0,0 207.88,-354.4 962.36,-354.4 745.6,0 962.4,354.4 962.4,354.4 l -962.4,77.6"
             style="fill:#dfeaee;fill-opacity:1;fill-rule:nonzero;stroke:none"
             id="path38" />
          <path
             d="m 10772,10522.7 c 0,0 221.9,340.2 440.6,122.6 0,0 3,-97.5 -195.3,-80.1 0,0 -86.5,38.4 -245.3,-42.5"
             style="fill:#c85e3c;fill-opacity:1;fill-rule:nonzero;stroke:none"
             id="path40" />
          <path
             d="m 10669.9,10525.6 c 0,0 -239.9,353.5 -447.6,148.1 0,0 2,-97.4 199.7,-91.3 0,0 84.6,33.4 247.9,-56.8"
             style="fill:#c85e3c;fill-opacity:1;fill-rule:nonzero;stroke:none"
             id="path42" />
          <path
             d="m 13113.9,6322.3 c -298.6,166.1 -512.9,337.8 -596.9,505.4 -229.7,458.8 -278.1,1007.5 -273.8,1801.3 -187.1,150.6 -397.1,275.9 -624.3,370.5 l -918.2,-291.6 -1025.18,325.5 c -184.36,-69.2 -358.13,-158.3 -518.65,-264.6 10.35,-870 -29.68,-1455.8 -272.67,-1941.1 -99.51,-198.6 -381.63,-402.8 -770.16,-596.6 251.2,-1096.6 1270.67,-1917.3 2490.36,-1917.3 1253.3,0 2295.4,866.5 2509.5,2008.5"
             style="fill:#e07a54;fill-opacity:1;fill-rule:nonzero;stroke:none"
             id="path44" />
          <path
             d="m 12440.4,7001.3 c -205.9,532.1 -211.4,1195.9 -188,2199.4 l -1551.7,-492.8 -1551.87,492.8 c 15.37,-657 18.29,-1168.2 -39.3,-1592.4 734.01,-598.4 2373.87,-1708.8 3330.87,-607"
             style="fill:#c96547;fill-opacity:1;fill-rule:nonzero;stroke:none"
             id="path46" />
          <path
             d="m 7961.28,12466.5 c 0,0 -157.51,489.9 -463.02,325.8 -305.4,-164.1 -143.06,-2065.8 301.32,-2285.8 444.38,-220 552.98,374.1 552.98,374.1 l -391.28,1585.9"
             style="fill:#e07a54;fill-opacity:1;fill-rule:nonzero;stroke:none"
             id="path48" />
          <path
             d="m 13495.4,12466.5 c 0,0 157.4,489.9 463,325.8 305.4,-164.1 143,-2065.8 -301.3,-2285.8 -444.5,-220 -553,374.1 -553,374.1 l 391.3,1585.9"
             style="fill:#e07a54;fill-opacity:1;fill-rule:nonzero;stroke:none"
             id="path50" />
          <path
             d="m 13613.9,12566.8 c -34.7,2421.9 -1114.8,3524.6 -2913.2,3530.9 -1798.57,-6.3 -2878.63,-1109 -2913.38,-3530.9 -12.3,-854.5 161,-1952.9 342.76,-2605.4 249.76,-896.8 1451.29,-1623.8 2092.22,-1947.3 157.4,-79.5 287.6,-77.9 478.4,-77.9 190.6,0 320.9,-1.6 478.4,77.9 640.8,323.5 1842.2,1050.5 2092.1,1947.3 181.7,652.5 355,1750.9 342.7,2605.4"
             style="fill:#f5966d;fill-opacity:1;fill-rule:nonzero;stroke:none"
             id="path52" />
          <path
             d="M 10735.9,9857.3 H 9708.92 c 209.35,-808.1 993.28,-727.4 993.28,-727.4 0,0 756.7,-80.7 1060.8,727.4 h -1027.1"
             style="fill:#ea6c4f;fill-opacity:1;fill-rule:nonzero;stroke:none"
             id="path54" />
          <path
             d="m 10735.9,9915.1 -962.36,-77.6 c 0,0 207.88,-354.4 962.36,-354.4 745.6,0 962.4,354.4 962.4,354.4 l -962.4,77.6"
             style="fill:#dfeaee;fill-opacity:1;fill-rule:nonzero;stroke:none"
             id="path56" />
          <path
             d="m 10772,10522.7 c 0,0 221.9,340.2 440.6,122.6 0,0 3,-97.5 -195.3,-80.1 0,0 -86.5,38.4 -245.3,-42.5"
             style="fill:#c85e3c;fill-opacity:1;fill-rule:nonzero;stroke:none"
             id="path58" />
          <path
             d="m 10669.9,10525.6 c 0,0 -239.9,353.5 -447.6,148.1 0,0 2,-97.4 199.7,-91.3 0,0 84.6,33.4 247.9,-56.8"
             style="fill:#c85e3c;fill-opacity:1;fill-rule:nonzero;stroke:none"
             id="path60" />
          <path
             d="m 11075.1,10052.9 c -114.9,42.4 -298.6,-26.2 -339.2,-54.4 -40.5,28.2 -224.2,96.8 -339.1,54.4 -114.9,-42.2 -687.88,-195.6 -687.88,-195.6 317.58,-113 1026.98,-91.8 1026.98,-91.8 0,0 709.5,-21.2 1027.1,91.8 0,0 -573,153.4 -687.9,195.6"
             style="fill:#c85e3c;fill-opacity:1;fill-rule:nonzero;stroke:none"
             id="path62" />
          <path
             d="m 8735.28,12237.1 v 0.1 c 83.51,135.5 312.21,233.1 582.26,233.1 270.06,0 498.76,-97.6 582.09,-233.1 h 0.11 l -0.11,-0.1 h 0.11 -0.11 c -83.33,-135.5 -312.03,-233 -582.09,-233 -270.05,0 -498.75,97.5 -582.26,233"
             style="fill:#fef5f6;fill-opacity:1;fill-rule:nonzero;stroke:none"
             id="path64" />
          <path
             d="m 9899.63,12255.8 h 0.11 -0.11"
             style="fill:#161731;fill-opacity:1;fill-rule:nonzero;stroke:none"
             id="path66" />
          <path
             d="m 8735.28,12255.8 c 132.11,122.5 312.21,214.5 582.26,214.5 202.75,0 397.27,-75 582.09,-214.5 -266.4,419.2 -690.05,426.3 -1064.42,249.7 0,0 -51.3,-11.6 -257.44,-205.5 l 157.51,-44.2"
             style="fill:#161731;fill-opacity:1;fill-rule:nonzero;stroke:none"
             id="path68" />
          <path
             d="m 8674.8,12494.7 c 0,0 4.01,3.3 12.09,9.4 56.66,43.1 306.71,216.8 628.41,216.6 176.16,-0.1 373.97,-51.5 575.77,-205.2 6.21,-4.8 15.06,-3.6 19.79,2.6 4.74,6.3 3.53,15.1 -2.66,19.8 -206.43,157.4 -411.23,211.1 -592.9,211 -379.49,-0.3 -657.31,-231.7 -658.54,-232.5 -6.01,-5 -6.83,-13.9 -1.84,-19.9 4.98,-6 13.89,-6.8 19.88,-1.8 v 0"
             style="fill:#e07a54;fill-opacity:1;fill-rule:nonzero;stroke:none"
             id="path70" />
          <path
             d="m 9051.53,12436.2 c -38.9,-49.8 -62.29,-112.3 -62.29,-180.4 0,-92.8 43.09,-175.4 110.33,-229.1 67.79,-14.5 141.11,-22.6 217.97,-22.6 44.12,0 86.99,2.8 128.48,7.7 78.46,52.7 130.23,142.3 130.23,244 0,77 -29.91,146.9 -78.47,199.1 -57.05,9.9 -117.41,15.4 -180.24,15.4 -95.42,0 -185.53,-12.4 -266.01,-34.1"
             style="fill:#161731;fill-opacity:1;fill-rule:nonzero;stroke:none"
             id="path72" />
          <path
             d="m 11293.8,13095.3 c 0,0 26.3,-276.2 268.4,-209.7 339,93 1011.1,183.5 1475.9,0 57.8,-22.8 -472.3,891.3 -1744.3,209.7"
             style="fill:#161731;fill-opacity:1;fill-rule:nonzero;stroke:none"
             id="path74" />
          <path
             d="m 10104.6,13095.3 c 0,0 -26.3,-276.2 -268.33,-209.7 -339.02,93 -1011.17,183.5 -1475.99,0 -57.68,-22.8 472.4,891.3 1744.32,209.7"
             style="fill:#161731;fill-opacity:1;fill-rule:nonzero;stroke:none"
             id="path76" />
          <path
             d="m 12665.9,12237.1 v 0.1 c -83.4,135.5 -312.2,233.1 -582.1,233.1 -270.1,0 -498.9,-97.6 -582.3,-233.1 v -0.1 c 83.4,-135.5 312.2,-233 582.3,-233 269.9,0 498.7,97.5 582.1,233"
             style="fill:#fef5f6;fill-opacity:1;fill-rule:nonzero;stroke:none"
             id="path78" />
          <path
             d="m 12665.9,12255.8 c -132.1,122.5 -312.2,214.5 -582.1,214.5 -202.8,0 -397.3,-75 -582.3,-214.5 266.4,419.2 690.2,426.3 1064.4,249.7 0,0 51.3,-11.6 257.7,-205.5 l -157.7,-44.2"
             style="fill:#161731;fill-opacity:1;fill-rule:nonzero;stroke:none"
             id="path80" />
          <path
             d="m 12744.5,12516.4 c -1.2,0.8 -279,232.2 -658.6,232.5 -181.7,0.1 -386.5,-53.6 -592.9,-211 -6.3,-4.7 -7.5,-13.5 -2.7,-19.8 4.7,-6.2 13.6,-7.4 19.8,-2.7 201.8,153.8 399.7,205.2 575.8,205.3 183.9,0 344.3,-56.5 458.6,-113.2 57.2,-28.3 102.8,-56.6 134.1,-77.8 15.6,-10.6 27.7,-19.4 35.7,-25.6 8.1,-6.1 12.1,-9.4 12.1,-9.4 6,-5 14.9,-4.2 19.9,1.8 5,6 4.2,14.9 -1.8,19.9 v 0"
             style="fill:#e07a54;fill-opacity:1;fill-rule:nonzero;stroke:none"
             id="path82" />
          <path
             d="m 12349.7,12436.2 c 38.9,-49.8 62.3,-112.3 62.3,-180.4 0,-92.8 -43.1,-175.4 -110.3,-229.1 -67.8,-14.5 -141.1,-22.6 -217.9,-22.6 -44.2,0 -87,2.8 -128.6,7.7 -78.5,52.7 -130.1,142.3 -130.1,244 0,77 29.8,146.9 78.3,199.1 57.1,9.9 117.6,15.4 180.4,15.4 95.3,0 185.4,-12.4 265.9,-34.1"
             style="fill:#161731;fill-opacity:1;fill-rule:nonzero;stroke:none"
             id="path84" />
          <path
             d="m 10772,16290 c -2106.22,0 -3011.88,-1042.3 -3046.62,-3464.1 -1.48,-99.9 61.73,-462.3 65.11,-567.8 302.59,176.6 326.01,757.5 372.28,1418.4 72.81,1041.4 1067.56,1597.3 1546.15,1470.9 424.38,-112.2 841.28,-250.5 1792.58,31.9 1146.1,340.4 1430.7,-837.7 1540.8,-1543.9 104.7,-671 526.8,-1311.9 568.6,-1374.2 3.3,104.4 90.3,465.8 88.8,564.7 -34.7,2421.8 -876.1,3464.1 -2927.7,3464.1"
             style="fill:#161731;fill-opacity:1;fill-rule:nonzero;stroke:none"
             id="path86" />
          <path
             d="m 13542.5,6111.6 c -26.6,11.8 -52.9,23.5 -78.8,35.4 -296.9,-1299.2 -1461.9,-2271.4 -2849.7,-2271.4 -1363.21,0 -2511.38,938 -2833.13,2202.5 -26.05,-11 -52.42,-22.1 -78.99,-33.1 C 8037.12,4750 9215.6,3790.8 10614,3790.8 c 1422.2,0 2616.9,992.3 2928.5,2320.8"
             style="fill:#99afb6;fill-opacity:1;fill-rule:nonzero;stroke:none"
             id="path88" />
          <path
             d="m 11238.1,8485.1 c -294.2,-83.8 -308.8,419.6 -308.8,419.6 h -222.5 -2.9 -222.6 c 0,0 -14.5,-503.4 -308.8,-419.6 -294.16,83.8 -814.85,207.8 -670.21,1007.5 144.68,799.5 812.11,532 1201.61,651.6 h 2.9 c 389.4,-119.6 1057,147.9 1201.6,-651.6 144.6,-799.7 -376,-923.7 -670.3,-1007.5 z m 2164.8,4390.2 c 57.9,-363.9 -289.3,-1632.3 -598.4,-2065.3 -309.1,-433.2 -57.3,-847.5 -90.1,-1110.9 -32.9,-263.4 -379.4,-296.9 -379.4,-296.9 -108.4,0 -79.5,713.3 -267.5,868.6 -188,155.5 -809.9,70.7 -954.6,56.6 -144.6,-14.2 -406.1,70.5 -406.1,70.5 h -2.9 c 0,0 -261.5,-84.7 -406.1,-70.5 -144.7,14.1 -766.54,98.9 -954.61,-56.6 -187.96,-155.3 -159.1,-868.6 -267.59,-868.6 0,0 -346.46,33.5 -379.29,296.9 -32.84,263.4 218.99,677.7 -90.14,1110.9 -309.1,433 -656.26,1701.4 -598.41,2065.3 l -221.04,-549.4 c 0,0 95.71,-2490 356.05,-2982.2 260.36,-492.3 1998.13,-1594 2561.13,-1622.2 h 2.9 c 563,28.2 2300.8,1129.9 2561.1,1622.2 260.4,492.2 343,2917.5 343,2917.5 l -208,614.1"
             style="fill:#161731;fill-opacity:1;fill-rule:nonzero;stroke:none"
             id="path90" />
        </g>
      </g>
    </g>
  </g>
</svg>
